<svg version="1.2" xmlns="http://www.w3.org/2000/svg" viewBox="0 0 645 228" width="645" height="228">
	<title>logo_ru-svg</title>
	<style>
		.s0 { fill: #e31e24 } 
	</style>
	<path id="Path 1" fill-rule="evenodd" class="s0" d="m85.1 15l-67.4 160.8c14.4-14.4 32.3-25.3 52.5-31.2l54.2-129.6zm-83.1 197.7h38.5c14.4-20 37.9-33 64.4-33 18.4 0 35.4 6.2 48.8 16.8l-19.5-46.6c-9.3-2.5-19.2-3.8-29.3-3.8-45.8 0-85.3 27.3-102.9 66.6zm107.6-140l58.6 140h39.4l-78.3-187z"/>
	<path id="АКТИВ БАНК" fill-rule="evenodd" class="s0" d="m293.9 92.7h-36.4l-7 16.8h-18.6l35-78.4h17.9l35 78.4h-19zm-5.7-13.8l-12.4-30-12.5 30zm72.5-1h-12.6v31.6h-18v-78.4h18v31.7h13l20.6-31.7h19.2l-25.6 37.9 26.4 40.5h-20.6zm108.5-32h-25.1v63.6h-17.9v-63.6h-25v-14.8h68zm11.4-14.8h18.1v51.1l37.4-51.1h17v78.4h-17.9v-50.9l-37.4 50.9h-17.2zm161.1 56.4c0 13.6-10.7 22-30.5 22h-38.6v-78.4h36.5c18.1 0 28.9 7.3 28.9 20.3 0 7.9-4.2 13.9-11.1 17.2 9.5 2.8 14.8 9.3 14.8 18.9zm-51.1-23.9h16.9c7.9 0 12-3.2 12-9.5 0-6.2-4.1-9.5-12-9.5h-16.9zm32.7 22.4c0-6.6-4.4-9.8-12.8-9.8h-19.9v19.8h19.9c8.4 0 12.8-3.2 12.8-10z"/>
	<path id="АКТИВ БАНК" fill-rule="evenodd" class="s0" d="m232 129h63.3v14.5h-45.3v16.1h21.7c19 0 29.2 8.1 29.2 23.1 0 15.6-11.6 24.7-31.7 24.7h-37.2zm36.1 65c9.3 0 14.4-3.7 14.4-10.8 0-6.9-4.8-10.3-14.4-10.3h-18.1v21.1zm98.9-3.4h-36.4l-6.9 16.8h-18.6l34.9-78.4h17.9l35.1 78.4h-19.1zm-5.7-13.8l-12.4-30-12.4 30zm114-47.8v78.4h-18.2v-32.1h-35.6v32.1h-18.1v-78.4h18.1v30.9h35.6v-30.9zm50 46.8h-12.6v31.6h-18v-78.4h18v31.7h13l20.6-31.7h19.2l-25.6 37.9 26.4 40.5h-20.6z"/>
</svg>